<svg xmlns="http://www.w3.org/2000/svg" xmlns:xlink="http://www.w3.org/1999/xlink" width="200" zoomAndPan="magnify" viewBox="0 0 375 374.999991" height="100" preserveAspectRatio="xMidYMid meet" version="1.0"><defs><clipPath id="id1"><path d="M 4.539062 11 L 370.539062 11 L 370.539062 364.949219 L 4.539062 364.949219 Z M 4.539062 11 " clip-rule="nonzero"/></clipPath><clipPath id="id2"><path d="M 31.089844 10.199219 L 343.839844 10.199219 L 343.839844 374.699219 L 31.089844 374.699219 Z M 31.089844 10.199219 " clip-rule="nonzero"/></clipPath></defs><rect x="-37.5" width="450" fill="rgb(100%, 100%, 100%)" y="-37.499999" height="449.999989" fill-opacity="1"/><rect x="-37.5" width="450" fill="rgb(100%, 100%, 100%)" y="-37.499999" height="449.999989" fill-opacity="1"/><rect x="-37.5" width="450" fill="rgb(100%, 100%, 100%)" y="-37.499999" height="449.999989" fill-opacity="1"/><g clip-path="url(#id1)"><path fill="rgb(39.99939%, 17.649841%, 56.858826%)" d="M 290.984375 344.035156 L 339.730469 344.035156 L 225.4375 56.054688 L 209.410156 96.289062 L 196.476562 63.652344 L 195.152344 63.921875 L 213.167969 18.769531 L 213.167969 18.683594 C 214.382812 15.644531 217.367188 13.050781 221.457031 11.976562 C 228.308594 10.191406 235.609375 13.226562 237.703125 18.683594 L 369.464844 350.46875 C 370.128906 351.71875 370.457031 353.0625 370.457031 354.492188 C 370.457031 360.304688 364.601562 364.953125 357.527344 364.953125 L 281.589844 364.953125 C 276.171875 364.953125 271.089844 362.09375 269.316406 357.710938 L 196.808594 175.054688 L 166.851562 99.683594 L 149.609375 56.054688 L 42.941406 324.628906 L 35.316406 344.035156 L 83.949219 344.035156 L 165.527344 138.578125 L 179.121094 172.730469 L 105.726562 357.710938 C 103.957031 362.09375 98.871094 364.953125 93.347656 364.953125 L 17.519531 364.953125 C 10.445312 364.953125 4.585938 360.304688 4.585938 354.492188 C 4.585938 353.0625 4.917969 351.71875 5.582031 350.46875 L 18.402344 318.195312 L 137.339844 18.683594 C 139.441406 13.226562 146.734375 10.191406 153.589844 11.976562 C 157.679688 13.050781 160.664062 15.644531 161.878906 18.683594 L 161.878906 18.769531 L 181.332031 67.585938 L 182.992188 71.882812 L 187.523438 83.324219 L 201.121094 117.386719 L 290.984375 344.035156 " fill-opacity="1" fill-rule="nonzero"/></g><g clip-path="url(#id2)"><path fill="rgb(0%, 0%, 0%)" d="M 109.3125 10.199219 C 70.605469 10.199219 38.472656 38.476562 32.308594 75.4375 C 40.777344 63.886719 51.71875 54.265625 64.433594 47.472656 C 75.554688 35.269531 91.527344 27.554688 109.3125 27.554688 L 317.726562 27.554688 L 317.726562 10.199219 Z M 109.3125 53.589844 C 66.222656 53.589844 31.15625 88.625 31.15625 131.699219 C 31.15625 174.769531 66.222656 209.804688 109.3125 209.804688 L 252.59375 209.804688 C 293.296875 209.804688 326.410156 242.894531 326.410156 283.574219 C 326.410156 324.25 293.296875 357.339844 252.59375 357.339844 L 31.15625 357.339844 L 31.15625 374.699219 L 252.59375 374.699219 C 302.875 374.699219 343.777344 333.820312 343.777344 283.574219 C 343.777344 233.324219 302.875 192.449219 252.59375 192.449219 L 109.3125 192.449219 C 75.789062 192.449219 48.523438 165.1875 48.523438 131.699219 C 48.523438 98.207031 75.789062 70.949219 109.3125 70.949219 L 317.726562 70.949219 L 317.726562 53.589844 Z M 65.976562 130.832031 C 65.96875 131.121094 65.890625 131.402344 65.890625 131.699219 C 65.890625 141.9375 69.601562 151.238281 75.558594 158.664062 C 85.789062 163.585938 97.214844 166.410156 109.3125 166.410156 L 252.59375 166.410156 C 273.429688 166.410156 292.230469 175.121094 305.664062 189.039062 C 320.140625 197.191406 332.582031 208.535156 341.980469 222.144531 C 333.574219 180.511719 296.691406 149.054688 252.59375 149.054688 L 109.3125 149.054688 C 92.351562 149.054688 77.011719 142.054688 65.976562 130.832031 Z M 308.820312 287.859375 C 295.273438 303.792969 275.113281 313.949219 252.59375 313.949219 L 31.15625 313.949219 L 31.15625 331.304688 L 252.59375 331.304688 C 267.878906 331.304688 282.242188 327.46875 294.894531 320.796875 C 302.78125 311.855469 307.875 300.445312 308.820312 287.859375 Z M 308.820312 287.859375 " fill-opacity="1" fill-rule="nonzero"/></g></svg>